<svg width="2587" height="2368" viewBox="0 0 2587 2368" fill="none" xmlns="http://www.w3.org/2000/svg">
<path d="M680.926 1480.35H818.926L918.426 1488.35L926.426 1612.71L876.426 1679.85L783.426 1695.35L702.51 1679.85L665.426 1572.85L680.926 1480.35Z" fill="#F6C6B9"/>
<line x1="853.5" y1="1633.22" x2="873.384" y2="1666.36" stroke="#CE944F" stroke-width="8" stroke-linecap="round"/>
<line x1="841.122" y1="1516.43" x2="875.588" y2="1528.73" stroke="#CE944F" stroke-width="8" stroke-linecap="round"/>
<line x1="810.391" y1="1653.99" x2="825.301" y2="1689.61" stroke="#CE944F" stroke-width="8" stroke-linecap="round"/>
<line x1="746.158" y1="1635.85" x2="746.158" y2="1677.85" stroke="#CE944F" stroke-width="8" stroke-linecap="round"/>
<path d="M872.012 1570.85L899.012 1605.85" stroke="#F6C6B9" stroke-width="50" stroke-linecap="round"/>
<path d="M779.158 1618.85V1671.85" stroke="#F6C6B9" stroke-width="50" stroke-linecap="round"/>
<rect x="1938.55" y="1804.44" width="943.642" height="724.834" transform="rotate(-135 1938.55 1804.44)" fill="white"/>
<rect x="799.891" y="1653.46" width="42" height="1449" transform="rotate(-135 799.891 1653.46)" fill="#844F00"/>
<line x1="877.533" y1="1592.62" x2="912.929" y2="1615.13" stroke="#CE944F" stroke-width="8" stroke-linecap="round"/>
<path d="M854.01 1490.85L931.01 1521.85" stroke="#F6C6B9" stroke-width="50" stroke-linecap="round"/>
<path d="M854.01 1593.85L887.01 1631.85" stroke="#F6C6B9" stroke-width="50" stroke-linecap="round"/>
<path d="M892.012 1547.85L925.012 1585.85" stroke="#F6C6B9" stroke-width="50" stroke-linecap="round"/>
<path d="M821.012 1626.85L839.012 1671.85" stroke="#F6C6B9" stroke-width="50" stroke-linecap="round"/>
<path d="M150.765 1059.43L399.861 848.809L592.471 1125.98L777.532 1449.38L802.703 1479.85L679.308 1615.3L645.042 1555.42L401.147 1373.95L150.765 1059.43Z" fill="#F6C6B9"/>
</svg>
