<svg width="2587" height="2368" viewBox="0 0 2587 2368" fill="none" xmlns="http://www.w3.org/2000/svg">
<path d="M1906.06 1480.35H1768.06L1668.56 1488.35L1660.56 1612.71L1710.56 1679.85L1803.56 1695.35L1884.47 1679.85L1921.56 1572.85L1906.06 1480.35Z" fill="#F6C6B9"/>
<line x1="4" y1="-4" x2="42.6476" y2="-4" transform="matrix(-0.514496 0.857493 0.857493 0.514496 1738.97 1631.85)" stroke="#CE944F" stroke-width="8" stroke-linecap="round"/>
<line x1="4" y1="-4" x2="40.5982" y2="-4" transform="matrix(-0.941742 0.336336 0.336336 0.941742 1750.97 1518.85)" stroke="#CE944F" stroke-width="8" stroke-linecap="round"/>
<line x1="4" y1="-4" x2="42.6154" y2="-4" transform="matrix(-0.386138 0.922441 0.922441 0.386138 1781.82 1651.85)" stroke="#CE944F" stroke-width="8" stroke-linecap="round"/>
<line x1="4" y1="-4" x2="46" y2="-4" transform="matrix(-3.99275e-09 1 1 3.99275e-09 1844.82 1631.85)" stroke="#CE944F" stroke-width="8" stroke-linecap="round"/>
<path d="M1714.97 1570.85L1687.97 1605.85" stroke="#F6C6B9" stroke-width="50" stroke-linecap="round"/>
<path d="M1807.82 1618.85V1671.85" stroke="#F6C6B9" stroke-width="50" stroke-linecap="round"/>
<rect width="943.642" height="724.834" transform="matrix(0.707107 -0.707107 -0.707107 -0.707107 648.426 1804.44)" fill="#BE1C1C"/>
<rect width="42" height="1449" transform="matrix(0.707107 -0.707107 -0.707107 -0.707107 1787.09 1653.46)" fill="#844F00"/>
<line x1="4" y1="-4" x2="45.946" y2="-4" transform="matrix(-0.843841 0.536593 0.536593 0.843841 1714.97 1593.85)" stroke="#CE944F" stroke-width="8" stroke-linecap="round"/>
<path d="M1732.97 1490.85L1655.97 1521.85" stroke="#F6C6B9" stroke-width="50" stroke-linecap="round"/>
<path d="M1732.97 1593.85L1699.97 1631.85" stroke="#F6C6B9" stroke-width="50" stroke-linecap="round"/>
<path d="M1694.97 1547.85L1661.97 1585.85" stroke="#F6C6B9" stroke-width="50" stroke-linecap="round"/>
<path d="M1765.97 1626.85L1747.97 1671.85" stroke="#F6C6B9" stroke-width="50" stroke-linecap="round"/>
<path d="M2436.22 1059.43L2187.12 848.809L1994.51 1125.98L1809.45 1449.38L1784.28 1479.85L1907.67 1615.3L1941.94 1555.42L2185.83 1373.95L2436.22 1059.43Z" fill="#F6C6B9"/>
</svg>
