<svg width="1620" height="1577" viewBox="0 0 1620 1577" fill="none" xmlns="http://www.w3.org/2000/svg">
<rect width="325" height="850" transform="matrix(-0.766044 -0.642788 -0.642788 0.766044 1069.79 694.519)" fill="#F6C6B9"/>
<path d="M1219.12 665.37L829.939 354.198L310.75 943.224L699.934 1254.39L1219.12 665.37Z" fill="#362C47"/>
<path d="M739.182 866.45C867.218 830.466 854.486 1018 710.536 995.267C733.253 1138.24 496.195 1091.39 554.232 1004.35C439.352 999.562 406.459 829.12 532.128 875.324C446.631 749.791 598.708 717.014 636.427 808.482C660.105 663.783 839.346 766.14 739.184 866.453L739.182 866.45ZM662.515 838.497L644.712 887.368L601.71 838.955L624.486 900.982L551.806 887.606L617.281 918.217L582.287 965.082L639.479 928.007L645.31 998.246L661.187 930.989L725.613 954.162L672.556 912.276L729.581 879.056L674.098 882.833L662.515 838.497Z" fill="#FAFF5A"/>
<path d="M780.985 461.761C757.297 596.103 848.323 724.444 984.296 748.42C1120.27 772.396 1249.7 682.927 1273.39 548.585C1297.08 414.243 1206.05 285.901 1070.08 261.925C934.105 237.949 804.673 327.419 780.985 461.761Z" fill="#362C47"/>
</svg>
