<svg width="2039" height="5267" viewBox="0 0 2039 5267" fill="none" xmlns="http://www.w3.org/2000/svg">
<path d="M1488.84 4910.18C1464.09 5212.21 1443.8 5167.08 1332.42 5219.86C1251.59 5219.86 1183 5230.56 1183 5062.98C1183 4895.4 1223.38 4587 1353.41 4587C1434.24 4587 1504.33 4721.12 1488.84 4910.18Z" fill="#362C47"/>
<path d="M1462.19 4864.99C1494.19 5097.57 1385.96 5122 1333.29 5122C1265.74 5122 1262.66 5122 1219.84 5062.88C1204.3 4930.13 1236.23 4725.62 1310.8 4696.54C1374.16 4671.85 1443.62 4729.96 1462.19 4864.99Z" fill="#FECABC"/>
<path d="M1196 3132H1568L1533.5 4015.35L1448 4819H1238.5L1196 4052.29V3132Z" fill="#F6C6B9"/>
<path d="M551.232 4911.03C524.883 5208.62 553.379 5168.48 658.364 5239.81C741.113 5254.4 809.499 5277.16 838.176 5114.53C866.853 4951.89 878.289 4645.31 745.175 4621.84C662.427 4607.25 567.724 4724.76 551.232 4911.03Z" fill="#362C47"/>
<path d="M591.699 4869.8C519.068 5089.92 625.836 5133.22 679.831 5142.74C749.078 5154.95 752.234 5155.51 806.259 5105.82C844.929 4979.69 847.219 4775.27 775.746 4733.55C715.024 4698.11 633.869 4742 591.699 4869.8Z" fill="#FECABC"/>
<ellipse rx="16.6829" ry="32.8504" transform="matrix(-0.999816 0.0191959 -0.0173646 0.999849 586.963 5090.97)" fill="#F6C6B9"/>
<ellipse rx="31.6883" ry="70.5161" transform="matrix(-0.984808 -0.173648 -0.173648 0.984808 788.307 5129)" fill="#F6C6B9"/>
<ellipse rx="21.8963" ry="46.1059" transform="matrix(-0.999816 0.0191959 -0.0173646 0.999849 712.811 5161.51)" fill="#F6C6B9"/>
<ellipse rx="23.4604" ry="43.2243" transform="matrix(-0.999816 0.0191959 -0.0173646 0.999849 665.741 5152.98)" fill="#F6C6B9"/>
<ellipse rx="19.811" ry="42.6479" transform="matrix(-0.999816 0.0191959 -0.0173646 0.999849 617.156 5132.56)" fill="#F6C6B9"/>
<path d="M822.135 4999.98C747.463 5085.41 754.394 5168.76 739 5154.35C723.607 5139.94 722.1 5022.83 570.945 4955.68" stroke="#362C47" stroke-width="40" stroke-linecap="round"/>
<path d="M866.493 3180.6H480L511.5 3999.92L604.675 4844.09H822.337L866.493 4088.06V3180.6Z" fill="#F6C6B9"/>
<path d="M383.167 2888.88H1054.31L909.071 3791.37H414.636L383.167 2888.88Z" fill="#E6E8CE"/>
<path d="M968.379 2888.88H1683.7L1631.66 3774.12H1113.62L968.379 2888.88Z" fill="#E6E8CE"/>
<path d="M505.158 1185.39H1533.9V1759.39H505.158V1185.39Z" fill="#1B091C"/>
<path d="M718.22 1032.03H1320.76V1221.02H718.22V1032.03Z" fill="#241424"/>
<path d="M807.525 2048.81H1271.34V3072.82H807.525V2048.81Z" fill="#241424"/>
<path d="M1162.83 3129.49C1047.6 2680.59 1028.02 2168.92 961.163 1688.34L1165.17 1289.93L1468.4 1185.34H1645.78L1754.98 2994.08C1560.18 3102.11 1407.11 3126.43 1162.81 3129.47L1162.83 3129.49Z" fill="#362C47"/>
<path d="M1257.93 1667.79C1124.56 1601.03 1102.26 1817.41 1264.44 1820.42C1211.91 1978.86 1480.79 1973.1 1434 1862.19C1560.84 1879.83 1629.84 1692.12 1483.16 1719.54C1601.14 1593.59 1440.78 1525.66 1381.77 1622.36C1383.78 1452.62 1167.55 1533.28 1257.94 1667.79L1257.93 1667.79ZM1347.37 1651.34L1357.44 1710.64L1413.93 1664.08L1376.98 1730.22L1459.22 1729.58L1381.54 1751.32L1410.84 1811.79L1355.32 1758.02L1335.35 1836.93L1330.95 1757.05L1255.86 1770.52L1322.11 1733.43L1266.02 1684.09L1326.11 1699.55L1347.37 1651.34Z" fill="#FAFF5A"/>
<path d="M1236.79 1834.23C1146.92 1807.19 1118.78 1891.12 1101.11 1956.54C1189.48 1967.82 1263.03 1927.86 1236.79 1834.23ZM1471.55 1889.96C1557.73 1840.11 1610 1919.06 1616.46 1988.4C1568.14 1978.68 1428.53 1988.27 1471.55 1889.96Z" fill="#8CEC9B"/>
<path d="M1527.76 2044.85C1472.25 2122.5 1456.77 2158.14 1473.61 2244.71C1519.54 2181.62 1540.95 2137.99 1527.76 2044.85ZM1404.61 2105.14C1390.59 2199.4 1393.3 2236.59 1449.63 2293.94C1461.78 2216.86 1460.71 2169.82 1404.61 2105.14V2105.14ZM1627.5 2224.44C1545.86 2217.28 1512.35 2223.85 1452.45 2293.47C1519.1 2300.11 1561.11 2294.49 1627.5 2224.44V2224.44ZM1543.59 2523.62C1482.62 2446.7 1451.25 2424.59 1356.59 2442.57C1405.84 2506.14 1443.42 2536.47 1543.59 2523.62ZM1349.76 2438.22C1300.4 2350.69 1272.76 2323.25 1178.5 2325.8C1218.2 2397.96 1250.81 2434.71 1349.76 2438.22ZM1574.15 2442.11C1514.49 2372.19 1484.26 2352.57 1395.36 2372.7C1443.59 2430.54 1479.91 2457.64 1574.15 2442.11V2442.11ZM1394.79 2373.83C1349.16 2290.81 1323.42 2264.65 1234.82 2266C1271.5 2334.43 1301.83 2369.41 1394.79 2373.83ZM1609.9 2360.27C1545.29 2303.62 1514.25 2289.58 1431.28 2320.45C1483.66 2367.45 1521.33 2387.6 1609.9 2360.27ZM1428.63 2317.03C1394.81 2231.52 1373.61 2203.07 1291.21 2192.69C1318.22 2263.05 1342.78 2300.54 1428.63 2317.03Z" fill="#8CEC9B"/>
<path d="M1379.03 2715.23C1245.66 2648.47 1223.36 2864.85 1385.54 2867.86C1333 3026.3 1601.88 3020.54 1555.1 2909.63C1681.94 2927.27 1750.93 2739.56 1604.26 2766.98C1722.23 2641.04 1561.88 2573.1 1502.87 2669.8C1504.88 2500.06 1288.65 2580.72 1379.04 2715.23L1379.03 2715.23ZM1468.47 2698.78L1478.54 2758.08L1535.02 2711.52L1498.07 2777.66L1580.32 2777.02L1502.64 2798.76L1531.94 2859.23L1476.42 2805.46L1456.45 2884.37L1452.05 2804.49L1376.95 2817.96L1443.2 2780.87L1387.12 2731.53L1447.2 2746.99L1468.47 2698.78Z" fill="#FAFF5A"/>
<path d="M1325 2661.46C1232.73 2678.99 1213.78 2592.59 1203.24 2525.7C1292.33 2523.7 1361.17 2571.1 1325 2661.46V2661.46ZM1343.42 2900.01C1360.15 2991.01 1272.15 3008.66 1204.06 3018.24C1203.06 2930.56 1252.02 2863.36 1343.42 2900.01Z" fill="#8CEC9B"/>
<path d="M940.902 3129.49C1013.15 2689.92 1021.41 2128.57 1033.75 1713.65L873.79 1289.96L570.565 1185.37H393.184L283.979 2994.11C519.254 3095.07 685.787 3125.04 940.851 3129.48L940.902 3129.49Z" fill="#362C47"/>
<path d="M966.826 2452.92C966.826 2464.27 962.247 2475.15 954.096 2483.17C945.945 2491.19 934.89 2495.69 923.362 2495.69C911.835 2495.69 900.78 2491.19 892.629 2483.17C884.478 2475.15 879.898 2464.27 879.898 2452.92C879.898 2441.58 884.478 2430.7 892.629 2422.68C900.78 2414.65 911.835 2410.15 923.362 2410.15C934.89 2410.15 945.945 2414.65 954.096 2422.68C962.247 2430.7 966.826 2441.58 966.826 2452.92ZM972.216 2163.95C972.216 2169.57 971.091 2175.13 968.907 2180.32C966.723 2185.51 963.521 2190.23 959.485 2194.2C955.449 2198.17 950.658 2201.32 945.385 2203.47C940.111 2205.62 934.46 2206.73 928.752 2206.73C917.225 2206.73 906.169 2202.22 898.018 2194.2C889.867 2186.18 885.288 2175.3 885.288 2163.95C885.288 2152.61 889.867 2141.73 898.018 2133.71C906.169 2125.69 917.225 2121.18 928.752 2121.18C934.46 2121.18 940.111 2122.29 945.385 2124.44C950.658 2126.58 955.449 2129.74 959.485 2133.71C963.521 2137.68 966.723 2142.39 968.907 2147.58C971.091 2152.77 972.216 2158.34 972.216 2163.95V2163.95ZM977.605 1874.98C977.605 1880.6 976.481 1886.16 974.297 1891.35C972.113 1896.54 968.911 1901.26 964.875 1905.23C960.839 1909.2 956.048 1912.35 950.774 1914.5C945.501 1916.65 939.849 1917.76 934.141 1917.76C928.434 1917.76 922.782 1916.65 917.509 1914.5C912.235 1912.35 907.444 1909.2 903.408 1905.23C899.372 1901.26 896.17 1896.54 893.986 1891.35C891.802 1886.16 890.678 1880.6 890.678 1874.98C890.678 1863.64 895.257 1852.76 903.408 1844.74C911.559 1836.72 922.614 1832.21 934.141 1832.21C939.849 1832.21 945.501 1833.32 950.774 1835.47C956.048 1837.62 960.839 1840.77 964.875 1844.74C968.911 1848.71 972.113 1853.43 974.297 1858.62C976.481 1863.8 977.605 1869.37 977.605 1874.98V1874.98Z" fill="#444444"/>
<path d="M745.444 2050.15C878.821 1983.39 901.117 2199.77 738.942 2202.77C791.472 2361.22 522.592 2355.46 569.379 2244.55C442.538 2262.19 373.544 2074.47 520.216 2101.89C402.244 1975.95 562.595 1908.01 621.609 2004.72C619.596 1834.98 835.831 1915.64 745.435 2050.15L745.444 2050.15ZM656.01 2033.7L645.941 2092.99L589.452 2046.44L626.403 2112.58L544.159 2111.94L621.839 2133.68L592.54 2194.15L648.06 2140.38L668.027 2219.29L672.429 2139.41L747.523 2152.88L681.273 2115.79L737.355 2066.45L677.274 2081.91L656.01 2033.7Z" fill="#FAFF5A"/>
<path d="M766.59 2216.59C856.454 2189.55 884.603 2273.48 902.273 2338.9C813.903 2350.18 740.345 2310.22 766.59 2216.59V2216.59ZM544.523 2264.06C458.336 2214.21 406.064 2293.16 399.609 2362.5C447.929 2352.78 587.537 2362.37 544.523 2264.06Z" fill="#FAFF5A"/>
<path d="M416.268 2488.98C506.152 2550.79 536.716 2582.96 552.81 2681.9C478.897 2631.99 438.843 2593.53 416.268 2488.98ZM622.644 2511.27C638.579 2618.4 635.5 2660.67 571.48 2725.86C557.675 2638.25 558.884 2584.78 622.644 2511.27ZM369.33 2646.96C462.114 2638.81 500.203 2646.28 568.297 2725.41C492.541 2732.96 444.792 2726.58 369.33 2646.96ZM464.706 2986.95C534 2899.53 569.648 2874.4 677.236 2894.83C621.26 2967.09 578.551 3001.57 464.706 2986.95ZM685 2889.87C741.106 2790.39 772.517 2759.19 879.655 2762.09C834.541 2844.11 797.473 2885.87 685 2889.87ZM429.912 2894.3C497.725 2814.83 532.077 2792.52 633.129 2815.41C578.303 2881.15 537.03 2911.95 429.912 2894.3ZM633.763 2816.75C685.627 2722.39 714.874 2692.65 815.586 2694.2C773.9 2771.98 739.428 2811.74 633.763 2816.75ZM389.319 2801.24C462.755 2736.86 498.026 2720.9 592.331 2755.98C532.803 2809.41 489.989 2832.31 389.319 2801.24ZM595.422 2752.16C633.865 2654.98 657.961 2622.64 751.613 2610.83C720.913 2690.8 692.998 2733.42 595.422 2752.16Z" fill="#8CEC9B"/>
<path d="M842.25 1529.75C806.852 1594.65 787.127 1617.6 720.273 1636.24C748.744 1582.95 772.041 1553.16 842.25 1529.75ZM842.591 1634.69C781.057 1677.05 753.915 1688.14 693.905 1669.67C743.988 1634.56 777.5 1618.92 842.591 1634.69V1634.69ZM680.97 1524.11C714.425 1577.32 721.454 1602.48 693.243 1667.58C665.375 1624.41 654.716 1593.8 680.97 1524.11H680.97ZM499.428 1685.52C574.828 1700.35 601.327 1714.06 621.595 1784.91C559.666 1773.42 525.223 1758.34 499.428 1685.52ZM627.006 1788.04C705.851 1791.27 734.799 1800.58 765.799 1865.78C701.146 1863.81 663.907 1854.34 627.006 1788.04ZM546.161 1636.3C616.185 1652.69 640.527 1666.48 657.276 1734.15C599.743 1721.36 568.012 1706.01 546.161 1636.3V1636.3ZM656.683 1734.93C731.053 1737.18 758.438 1745.64 788.313 1806.57C727.336 1805.35 692.132 1796.83 656.683 1734.93ZM591.393 1583.4C653.781 1607.77 674.475 1624.07 681.591 1691.42C630.25 1672.04 602.95 1653.35 591.393 1583.4V1583.4ZM684.927 1692.09C756.944 1685.42 784.356 1689.99 820.351 1742.6C761.38 1748.65 726.414 1744.94 684.927 1692.09Z" fill="#8CEC9B"/>
<path d="M1320.77 1032.03L1215.53 1206.46C1232.95 1243.44 1240.48 1257.47 1263.05 1306.51C1230.74 1272.61 1226.48 1252.81 1192.98 1243.85L1165.15 1289.96L1447.82 1500.19L1468.39 1185.36L1320.77 1032.03ZM1383.89 1116.31C1366.61 1184.23 1338.15 1211.79 1309.29 1258.99C1323.98 1196.08 1336.48 1169.39 1383.89 1116.31ZM1280.47 1142C1303.67 1200.15 1294.14 1235.97 1282.88 1292.42C1259.11 1240.4 1266.98 1212.01 1280.47 1142V1142ZM1429.36 1268.7C1368.95 1286.75 1340.08 1291.34 1285.08 1292.55C1337.83 1268.86 1372.21 1270.32 1429.36 1268.7V1268.7ZM1393.21 1368.75C1331 1349.17 1313.68 1337.15 1264.52 1309.53C1321.93 1322.5 1351.95 1341.41 1393.21 1368.75V1368.75Z" fill="#362C47"/>
<path d="M1298.26 1306.72C1288.36 1306.69 1277.25 1307.65 1264.49 1309.51C1296.3 1353.65 1321.46 1375.04 1393.18 1368.73C1361.12 1325.31 1341.13 1306.81 1298.25 1306.72L1298.26 1306.72ZM1372.07 1256.65C1344.48 1255.73 1320.74 1265.63 1285.05 1292.53C1334.45 1308.4 1367.24 1310.97 1429.33 1268.67C1406.57 1261.66 1388.63 1257.2 1372.07 1256.65L1372.07 1256.65ZM1215.51 1206.44L1192.95 1243.84C1204.06 1270.43 1223.43 1289.68 1263.02 1306.49C1254.45 1253.04 1245.8 1225.79 1215.51 1206.44L1215.51 1206.44ZM1280.44 1141.97C1253.99 1211.14 1249.79 1239.76 1282.85 1292.39C1305 1235.94 1312.1 1200.12 1280.44 1141.97V1141.97ZM1383.87 1116.29C1328.75 1166.12 1311.04 1190.61 1309.26 1258.97C1354.66 1218.62 1378.22 1189.03 1383.87 1116.29Z" fill="#8CEC9B"/>
<path d="M718.22 1032.03L570.604 1185.38L591.178 1500.2L753.488 1379.47C759.914 1371.67 763.661 1367.11 764.85 1363.52L697.093 1294.64L752.234 1222.38L755.234 1093.39L718.22 1032.03ZM831.027 1219.01L751.485 1229.53L737.373 1316.9L775.233 1340.63L824.205 1326.88L873.827 1289.97L831.027 1219.01Z" fill="#362C47"/>
<path d="M755.268 1093.41C726.854 1117.39 713.861 1162.55 750.044 1216.39C616.668 1149.62 594.372 1366 756.547 1369.01C755.357 1372.6 754.389 1376.07 753.522 1379.48L824.236 1326.9L823.063 1305.64L747.963 1319.11L814.214 1282.03L758.129 1232.68L818.211 1248.14L831.056 1219.03L755.266 1093.41L755.268 1093.41Z" fill="#FAFF5A"/>
<ellipse cx="1286.24" cy="444.701" rx="86.8097" ry="88.7482" fill="#362C47"/>
<ellipse cx="1025.82" cy="598.211" rx="515.006" ry="523.375" fill="#362C47"/>
<rect x="682.479" y="340.601" width="709.108" height="403.924" fill="#F6C6B9"/>
<ellipse cx="1516.44" cy="709.026" rx="96.5636" ry="100.741" fill="#362C47"/>
<ellipse cx="560.555" cy="732.533" rx="97.539" ry="104.099" fill="#362C47"/>
<ellipse cx="670.286" cy="870.212" rx="109.731" ry="115.133" fill="#362C47"/>
<ellipse cx="1114.09" cy="1026.6" rx="109.731" ry="115.133" fill="#362C47"/>
<ellipse cx="809.766" cy="983.426" rx="109.731" ry="115.133" fill="#362C47"/>
<ellipse cx="957.051" cy="1029.48" rx="109.731" ry="115.133" fill="#362C47"/>
<ellipse cx="1414.51" cy="847.186" rx="109.731" ry="115.133" fill="#362C47"/>
<ellipse cx="1265.27" cy="992.541" rx="109.731" ry="115.613" fill="#362C47"/>
<ellipse cx="681.991" cy="700.871" rx="105.83" ry="107.937" fill="#F2AD9B"/>
<ellipse cx="1382.32" cy="700.871" rx="105.83" ry="107.937" fill="#F2AD9B"/>
<ellipse cx="1030.5" cy="663" rx="356.5" ry="445" fill="#F6C6B9"/>
<ellipse cx="883.896" cy="608.285" rx="36.5771" ry="37.4182" fill="black"/>
<ellipse cx="1157.98" cy="608.285" rx="36.5771" ry="37.4182" fill="black"/>
<ellipse cx="1023.86" cy="922.022" rx="48.7695" ry="61.4042" fill="#1C1B22"/>
<ellipse cx="627.857" cy="285.433" rx="86.8097" ry="88.7482" fill="#362C47"/>
<ellipse cx="718.568" cy="177.017" rx="86.8097" ry="88.7482" fill="#362C47"/>
<ellipse cx="986.8" cy="88.7482" rx="86.8097" ry="88.7482" fill="#362C47"/>
<ellipse cx="1137.99" cy="98.3426" rx="86.8097" ry="88.7482" fill="#362C47"/>
<ellipse cx="1274.54" cy="163.105" rx="86.8097" ry="88.2685" fill="#362C47"/>
<ellipse cx="1274.54" cy="163.105" rx="86.8097" ry="88.2685" fill="#362C47"/>
<ellipse cx="1274.54" cy="163.105" rx="86.8097" ry="88.2685" fill="#362C47"/>
<ellipse cx="1274.54" cy="163.105" rx="86.8097" ry="88.2685" fill="#362C47"/>
<ellipse cx="1391.59" cy="251.853" rx="86.8097" ry="88.7482" fill="#362C47"/>
<ellipse cx="662.483" cy="545.442" rx="68.765" ry="70.5189" fill="#362C47"/>
<ellipse cx="710.277" cy="444.221" rx="68.765" ry="70.0391" fill="#362C47"/>
<ellipse cx="831.225" cy="434.147" rx="68.765" ry="70.5189" fill="#362C47"/>
<ellipse cx="1207.73" cy="441.342" rx="68.765" ry="70.0391" fill="#362C47"/>
<ellipse cx="1328.67" cy="457.653" rx="68.765" ry="70.0391" fill="#362C47"/>
<ellipse cx="1409.63" cy="545.442" rx="68.765" ry="70.5189" fill="#362C47"/>
<ellipse cx="1086.78" cy="457.653" rx="68.765" ry="70.0391" fill="#362C47"/>
<ellipse cx="966.804" cy="457.653" rx="68.765" ry="70.0391" fill="#362C47"/>
<ellipse cx="1488.15" cy="374.182" rx="86.8097" ry="88.2685" fill="#362C47"/>
<ellipse cx="510.81" cy="574.705" rx="86.8097" ry="88.2685" fill="#362C47"/>
<ellipse cx="1516.44" cy="544.962" rx="96.5636" ry="100.741" fill="#362C47"/>
<ellipse cx="554.702" cy="415.917" rx="86.8097" ry="88.7482" fill="#362C47"/>
<ellipse cx="847.319" cy="108.417" rx="86.8097" ry="88.2685" fill="#362C47"/>
<rect x="654.192" y="209.158" width="743.247" height="257.13" fill="#362C47"/>
<rect x="796.115" y="524.665" width="180.438" height="184.509" rx="40" fill="black" fill-opacity="0.7" stroke="black" stroke-width="40"/>
<rect x="1071.18" y="524.665" width="180.438" height="184.509" rx="40" fill="black" fill-opacity="0.7" stroke="black" stroke-width="40"/>
<path d="M987.095 512.921C869.965 454.265 782.197 503.112 748.805 534.867V565.79L784.173 587.736L792.736 558.448L813.726 534.867L878.07 534.867L942.415 534.867L998.238 558.448H1057.99L1102.66 534.867H1243.96V599.65L1298.92 565.79V534.867C1201.93 465.438 1101.14 491.307 1057.99 512.921H1036.93H987.095Z" fill="black" stroke="black"/>
<path d="M996.553 574.705C894.28 522.811 812.841 553.082 786.357 574.705L776.115 542.084H996.553V574.705Z" fill="black" stroke="black"/>
<path d="M1271.61 574.705C1169.34 522.811 1090.8 553.082 1064.32 574.705L1051.18 542.084H1271.61V574.705Z" fill="black" stroke="black"/>
<path d="M854.146 1066.9V903.861C854.146 867.946 873.31 833.948 907.704 823.608C932.477 816.159 960.913 810.751 990.213 809.46C1047.3 806.944 1110.61 802.496 1165 839.791C1185.8 854.05 1194.56 879.472 1194.56 904.687V1066.9" stroke="#362C47" stroke-width="40" stroke-linecap="round"/>
<path d="M980.947 759.877C997.529 811.617 1051.84 813.03 1072.63 759.877" stroke="#F2AD9B" stroke-width="35" stroke-linecap="round"/>
<path d="M853.172 985.345C872.68 1051.48 927.514 1066.9 1036.58 1066.9C1138.8 1066.9 1177.49 1049.99 1194.56 995.716" stroke="#362C47" stroke-width="40" stroke-linecap="round"/>
<rect x="870" y="1025.15" width="302" height="240.854" fill="#F2AD9B"/>
<rect x="868.777" y="1012.21" width="302.371" height="52.7692" fill="#362C47"/>
<rect x="870.729" y="1040.03" width="302.371" height="52.7692" fill="#362C47"/>
<path d="M850.245 1024.68C869.753 1090.82 924.587 1106.23 1033.65 1106.23C1135.87 1106.23 1174.56 1089.33 1191.63 1035.05" stroke="#362C47" stroke-width="40" stroke-linecap="round"/>
<path d="M843 1063C862.508 1129.14 917.342 1144.55 1026.41 1144.55C1128.63 1144.55 1167.32 1127.65 1184.39 1073.37" stroke="#362C47" stroke-width="40" stroke-linecap="round"/>
<ellipse rx="16.0901" ry="33.2756" transform="matrix(0.979294 0.202444 -0.148727 0.988878 1429.71 5086.54)" fill="#F6C6B9"/>
<ellipse cx="1232.5" cy="5089" rx="30.5" ry="71" fill="#F6C6B9"/>
<ellipse rx="21.1182" ry="46.7026" transform="matrix(0.979294 0.202444 -0.148727 0.988878 1298.63 5134.83)" fill="#F6C6B9"/>
<ellipse rx="22.6267" ry="43.7837" transform="matrix(0.979294 0.202444 -0.148727 0.988878 1344.67 5134.59)" fill="#F6C6B9"/>
<ellipse rx="19.107" ry="43.1999" transform="matrix(0.979294 0.202444 -0.148727 0.988878 1394.14 5122.75)" fill="#F6C6B9"/>
<path d="M1222 4954C1278.62 5053.1 1258.07 5135.64 1275.11 5123.88C1292.14 5112.12 1313.19 4994.7 1468 4954" stroke="#362C47" stroke-width="40" stroke-linecap="round"/>
<path d="M994.973 1613.31C994.158 1614.79 991.994 1614.65 991.366 1613.09L910.21 1411.05L862.869 1304.48L817.857 1224.31C817.069 1222.9 818.175 1221.19 819.778 1221.34L1013.08 1238.51C1013.2 1238.52 1013.32 1238.52 1013.44 1238.51L1207.26 1221.33C1208.86 1221.19 1209.96 1222.88 1209.19 1224.29L1104.35 1415.1L994.973 1613.31Z" fill="#F6C6B9"/>
<path d="M893 1222.5C893 1222.5 884.5 1234 1014.5 1234C1152.78 1234 1142.5 1233 1150.5 1222.5" stroke="#F2AD9B" stroke-width="40" stroke-linecap="round"/>
</svg>
