<svg width="1620" height="1577" viewBox="0 0 1620 1577" fill="none" xmlns="http://www.w3.org/2000/svg">
<rect x="549.355" y="694.519" width="325" height="850" transform="rotate(-40 549.355 694.519)" fill="#F6C6B9"/>
<path d="M400.025 665.37L789.209 354.198L1308.4 943.224L919.214 1254.39L400.025 665.37Z" fill="#362C47"/>
<path d="M879.966 866.45C751.93 830.466 764.662 1018 908.613 995.267C885.895 1138.24 1122.95 1091.39 1064.92 1004.35C1179.8 999.562 1212.69 829.12 1087.02 875.324C1172.52 749.791 1020.44 717.014 982.721 808.482C959.044 663.783 779.802 766.14 879.965 866.453L879.966 866.45ZM956.633 838.497L974.437 887.368L1017.44 838.955L994.663 900.982L1067.34 887.606L1001.87 918.217L1036.86 965.082L979.669 928.007L973.838 998.246L957.962 930.989L893.535 954.162L946.593 912.276L889.568 879.056L945.05 882.833L956.633 838.497Z" fill="#FAFF5A"/>
<path d="M838.163 461.761C861.851 596.103 770.826 724.444 634.852 748.42C498.879 772.396 369.447 682.927 345.759 548.585C322.071 414.243 413.097 285.901 549.07 261.925C685.044 237.949 814.475 327.419 838.163 461.761Z" fill="#362C47"/>
</svg>
